[img]http://briefcase.pathfinder.gr/download/540731/numberone.gif[/img]
[img]http://briefcase.pathfinder.gr/download/538827/seed.gif[/img]

[img]http://www.33smiley.com/smiley5/work/5.gif[/img]

[img]http://img96.imageshack.us/img96/7497/tothedeviladaughterfron.jpg[/img]

IMDB Link:http://www.imdb.com/title/tt0075334/

Plot:An excommunicated priest sets up a satanic cult that only looks Catholic on the outside. He convinces a man to sign over his daughter's soul so that she will become the devil's representative on earth on her eighteenth birthday, but as that day nears, the man seeks the help of an American occult novelist to save his daughter, both physically and spiritually.

[IMG]http://i981.photobucket.com/albums/ae294/fasamoo/tothedevil_20100521-01493496.jpg[/IMG]
[IMG]http://i981.photobucket.com/albums/ae294/fasamoo/tothedevil_20100521-01491442.jpg[/IMG]
[IMG]http://i981.photobucket.com/albums/ae294/fasamoo/tothedevil_20100521-01471568.jpg[/IMG]
[IMG]http://i981.photobucket.com/albums/ae294/fasamoo/tothedevil_20100521-01465503.jpg[/IMG]
[IMG]http://i981.photobucket.com/albums/ae294/fasamoo/tothedevil_20100521-01461262.jpg[/IMG]
[IMG]http://i981.photobucket.com/albums/ae294/fasamoo/tothedevil_20100521-01460368.jpg[/IMG]
[IMG]http://i981.photobucket.com/albums/ae294/fasamoo/tothedevil_20100521-01434400.jpg[/IMG]
[IMG]http://i981.photobucket.com/albums/ae294/fasamoo/tothedevil_20100521-01404235.jpg[/IMG]

General
Complete name                    : To the Devil a Daughter 1976 DVDRip GoGoTo the Devil a Daughter 1976 DVDRip GoGo.avi
Format                           : AVI
Format/Info                      : Audio Video Interleave
File size                        : 700 MiB
Duration                         : 1h 32mn
Overall bit rate                 : 1 054 Kbps
Writing application              : VirtualDubMod 1.5.4.1 (build 2178/release)
Writing library                  : VirtualDubMod build 2178/release

Video
ID                               : 0
Format                           : MPEG-4 Visual
Format profile                   : Advanced Simple@L5
Format settings, BVOP            : Yes
Format settings, QPel            : No
Format settings, GMC             : No warppoints
Format settings, Matrix          : Custom
Codec ID                         : XVID
Codec ID/Hint                    : XviD
Duration                         : 1h 32mn
Bit rate                         : 940 Kbps
Width                            : 608 pixels
Height                           : 352 pixels
Display aspect ratio             : 16:9
Frame rate                       : 23.976 fps
Resolution                       : 8 bits
Colorimetry                      : 4:2:0
Scan type                        : Progressive
Bits/(Pixel*Frame)               : 0.183
Stream size                      : 625 MiB (89%)
Writing library                  : XviD 1.2.1 (UTC 2008-12-04)

Audio
ID                               : 1
Format                           : MPEG Audio
Format version                   : Version 1
Format profile                   : Layer 3
Mode                             : Joint stereo
Format_Settings_ModeExtension    : MS Stereo
Codec ID                         : 55
Codec ID/Hint                    : MP3
Duration                         : 1h 32mn
Bit rate mode                    : Variable
Bit rate                         : 101 Kbps
Nominal bit rate                 : 128 Kbps
Channel(s)                       : 2 channels
Sampling rate                    : 48.0 KHz
Stream size                      : 67.1 MiB (10%)
Alignment                        : Aligned on interleaves
Interleave, duration             : 24 ms (0.58 video frame)
Interleave, preload duration     : 650 ms
Writing library                  : LAME3.98r
Encoding settings                : -m j -V 4 -q 2 -lowpass 17 --abr 128
Language                         : English
Subtitles                        : None
Genre                            : Horror | Mystery | Thriller 
